<svg width="22" height="22" viewBox="0 0 22 22" fill="none" xmlns="http://www.w3.org/2000/svg">
<path fill-rule="evenodd" clip-rule="evenodd" d="M15.2526 17.4316H20.2487C21.0997 17.4316 21.7895 16.7418 21.7895 15.8908C21.7895 15.4822 21.6271 15.0903 21.3382 14.8014L20.2487 13.7119C19.8401 13.3033 19.6105 12.749 19.6105 12.1711L19.6105 8.68384C19.6105 3.88788 15.7226 0 10.9267 0C6.12054 0 2.22844 3.90379 2.24287 8.70991L2.25318 12.145C2.25496 12.7383 2.01475 13.3067 1.58801 13.7188L0.466987 14.8016C0.168547 15.0898 2.26022e-06 15.487 0 15.9019C0 16.7467 0.684874 17.4316 1.52971 17.4316H6.53684C6.53684 19.8384 8.48794 21.7895 10.8947 21.7895C13.3015 21.7895 15.2526 19.8384 15.2526 17.4316ZM19.0932 14.8674L20.0231 15.7974H1.78833L2.72333 14.8943C3.47012 14.173 3.8905 13.1784 3.88739 12.1401L3.87708 8.705C3.86536 4.80335 7.02501 1.63421 10.9267 1.63421C14.8201 1.63421 17.9763 4.79044 17.9763 8.68384L17.9763 12.1711C17.9763 13.1824 18.3781 14.1523 19.0932 14.8674ZM13.6184 17.4316H8.17105C8.17105 18.9358 9.39049 20.1553 10.8947 20.1553C12.399 20.1553 13.6184 18.9358 13.6184 17.4316Z" fill="#E8E8E8"/>
</svg>
