<svg width="22" height="22" viewBox="0 0 22 22" fill="none" xmlns="http://www.w3.org/2000/svg">
<path d="M11.5138 18.5362V20.5915C11.5138 20.7277 11.4597 20.8584 11.3633 20.9548C11.2669 21.0512 11.1362 21.1053 11 21.1053C10.8637 21.1053 10.733 21.0512 10.6366 20.9548C10.5403 20.8584 10.4861 20.7277 10.4861 20.5915V18.5362C10.4861 18.3999 10.5403 18.2692 10.6366 18.1728C10.733 18.0765 10.8637 18.0223 11 18.0223C11.1362 18.0223 11.2669 18.0765 11.3633 18.1728C11.4597 18.2692 11.5138 18.3999 11.5138 18.5362ZM5.69042 11C5.69042 9.94989 6.00182 8.92335 6.58524 8.0502C7.16866 7.17705 7.99789 6.49651 8.96809 6.09464C9.93828 5.69278 11.0059 5.58763 12.0358 5.7925C13.0658 5.99737 14.0118 6.50305 14.7544 7.24561C15.4969 7.98816 16.0026 8.93423 16.2075 9.96418C16.4124 10.9941 16.3072 12.0617 15.9053 13.0319C15.5035 14.0021 14.8229 14.8313 13.9498 15.4147C13.0766 15.9982 12.0501 16.3096 11 16.3096C9.59227 16.308 8.24269 15.7481 7.2473 14.7527C6.25191 13.7573 5.692 12.4077 5.69042 11ZM6.71807 11C6.71807 11.8469 6.9692 12.6748 7.4397 13.3789C7.9102 14.0831 8.57894 14.6319 9.36135 14.956C10.1438 15.2801 11.0047 15.3649 11.8353 15.1996C12.6659 15.0344 13.4289 14.6266 14.0277 14.0278C14.6265 13.4289 15.0344 12.666 15.1996 11.8354C15.3648 11.0048 15.28 10.1438 14.9559 9.36141C14.6318 8.579 14.083 7.91026 13.3789 7.43976C12.6747 6.96926 11.8468 6.71813 11 6.71813C9.86475 6.71949 8.77643 7.17105 7.97371 7.97377C7.17099 8.77649 6.71943 9.86481 6.71807 11ZM16.8439 16.1177C16.7968 16.0673 16.7401 16.0268 16.6771 15.9987C16.6141 15.9706 16.546 15.9555 16.477 15.9543C16.408 15.9531 16.3395 15.9658 16.2755 15.9916C16.2115 16.0174 16.1534 16.0559 16.1046 16.1047C16.0558 16.1535 16.0174 16.2116 15.9915 16.2756C15.9657 16.3396 15.953 16.4081 15.9542 16.4771C15.9554 16.5461 15.9705 16.6141 15.9986 16.6772C16.0267 16.7402 16.0672 16.7969 16.1177 16.8439L17.4879 18.2142C17.5853 18.3049 17.7141 18.3543 17.8472 18.352C17.9804 18.3496 18.1074 18.2957 18.2015 18.2016C18.2956 18.1074 18.3496 17.9804 18.3519 17.8473C18.3543 17.7142 18.3049 17.5853 18.2141 17.4879L16.8439 16.1177ZM16.8439 5.88231L18.2141 4.5121C18.2646 4.46506 18.3051 4.40833 18.3331 4.3453C18.3612 4.28228 18.3763 4.21424 18.3776 4.14524C18.3788 4.07625 18.3661 4.00772 18.3402 3.94374C18.3144 3.87976 18.2759 3.82164 18.2271 3.77285C18.1783 3.72406 18.1202 3.68559 18.0562 3.65975C17.9923 3.63391 17.9237 3.62122 17.8547 3.62243C17.7857 3.62365 17.7177 3.63875 17.6547 3.66683C17.5917 3.69492 17.5349 3.73541 17.4879 3.78589L16.1177 5.1561C16.0672 5.20314 16.0267 5.25986 15.9986 5.32289C15.9705 5.38592 15.9554 5.45396 15.9542 5.52295C15.953 5.59195 15.9657 5.66048 15.9915 5.72446C16.0174 5.78844 16.0558 5.84656 16.1046 5.89535C16.1534 5.94414 16.2115 5.98261 16.2755 6.00845C16.3395 6.03429 16.408 6.04698 16.477 6.04577C16.546 6.04455 16.6141 6.02945 16.6771 6.00136C16.7401 5.97328 16.7968 5.93279 16.8439 5.88231ZM5.51914 15.967C5.38291 15.9671 5.25231 16.0214 5.15604 16.1177L3.78583 17.4879C3.69507 17.5853 3.64566 17.7142 3.64801 17.8473C3.65035 17.9804 3.70428 18.1074 3.79842 18.2016C3.89256 18.2957 4.01957 18.3496 4.15269 18.352C4.2858 18.3543 4.41464 18.3049 4.51204 18.2142L5.88225 16.8439C5.95401 16.7721 6.00288 16.6806 6.02267 16.581C6.04246 16.4813 6.03228 16.3781 5.99343 16.2843C5.95458 16.1904 5.88879 16.1102 5.80437 16.0538C5.71996 15.9973 5.6207 15.9671 5.51914 15.967ZM5.15604 5.88231C5.25344 5.97307 5.38227 6.02248 5.51539 6.02013C5.6485 6.01778 5.77551 5.96386 5.86965 5.86971C5.9638 5.77557 6.01772 5.64857 6.02007 5.51545C6.02242 5.38233 5.97301 5.2535 5.88225 5.1561L4.51204 3.78589C4.41464 3.69513 4.2858 3.64572 4.15269 3.64807C4.01957 3.65042 3.89256 3.70434 3.79842 3.79848C3.70428 3.89263 3.65035 4.01963 3.64801 4.15275C3.64566 4.28587 3.69507 4.4147 3.78583 4.5121L5.15604 5.88231ZM18.0223 11C18.0223 11.1363 18.0764 11.267 18.1728 11.3634C18.2691 11.4597 18.3998 11.5138 18.5361 11.5138H20.5914C20.7277 11.5138 20.8584 11.4597 20.9547 11.3634C21.0511 11.267 21.1052 11.1363 21.1052 11C21.1052 10.8637 21.0511 10.7331 20.9547 10.6367C20.8584 10.5403 20.7277 10.4862 20.5914 10.4862H18.5361C18.3998 10.4862 18.2691 10.5403 18.1728 10.6367C18.0764 10.7331 18.0223 10.8637 18.0223 11ZM11 3.97772C11.1362 3.97772 11.2669 3.92359 11.3633 3.82722C11.4597 3.73086 11.5138 3.60017 11.5138 3.46389V1.40859C11.5138 1.27231 11.4597 1.14162 11.3633 1.04526C11.2669 0.948895 11.1362 0.89476 11 0.89476C10.8637 0.89476 10.733 0.948895 10.6366 1.04526C10.5403 1.14162 10.4861 1.27231 10.4861 1.40859V3.46389C10.4861 3.60017 10.5403 3.73086 10.6366 3.82722C10.733 3.92359 10.8637 3.97772 11 3.97772ZM1.40853 11.5138H3.46383C3.60011 11.5138 3.7308 11.4597 3.82716 11.3634C3.92352 11.267 3.97766 11.1363 3.97766 11C3.97766 10.8637 3.92352 10.7331 3.82716 10.6367C3.7308 10.5403 3.60011 10.4862 3.46383 10.4862H1.40853C1.27225 10.4862 1.14156 10.5403 1.04519 10.6367C0.948833 10.7331 0.894699 10.8637 0.894699 11C0.894699 11.1363 0.948833 11.267 1.04519 11.3634C1.14156 11.4597 1.27225 11.5138 1.40853 11.5138Z" fill="#08CA06"/>
</svg>
